# xmcd CD database file
#
# Track frame offsets:
#	150
#	13582
#	28635
#	56620
#	71760
#	85910
#	98075
#	109512
#	127450
#	147587
#
# Disc length: 2289 seconds
#
# Revision: 0
# Processed by: cddbd v1.5.1PL2 Copyright (c) Steve Scherf et al.
# Submitted via: CDex 1.51
#
DISCID=8d08ef0a
DTITLE=Vern Jackson - Walking In The Light
DYEAR=1995
DGENRE=Country
TTITLE0=Walking In The Light
TTITLE1=Right Side Of The Track
TTITLE2=The Most Precious Stone In Heaven
TTITLE3=You Can't Have A Testimony
TTITLE4=Ain't In A Management Position
TTITLE5=Coming Out Of The Closet
TTITLE6=Peace Be Still
TTITLE7=Look How Far He's Come
TTITLE8=Miss Lizzi
TTITLE9=Home
EXTD=YEAR: 1995
EXTT0=
EXTT1=
EXTT2=
EXTT3=
EXTT4=
EXTT5=
EXTT6=
EXTT7=
EXTT8=
EXTT9=
PLAYORDER=
